# xmcd CD database file
#
# Track frame offsets:
#	150
#	13252
#	25824
#	43402
#	57769
#	77705
#	94459
#	118497
#	133864
#	147334
#	163451
#	181177
#	194303
#	210415
#	236092
#	252444
#	269703
#
# Disc length: 3970 seconds
#
# Revision: 0
# Processed by: cddbd v1.5.2PL0 Copyright (c) Steve Scherf et al.
# Submitted via: CDex 1.51
#
DISCID=0c0f8011
DTITLE=Erik Trauner - A Scarecrow's Moan
DYEAR=2005
DGENRE=Blues
TTITLE0=A Scarecrow's Moan
TTITLE1=The Kids Can't Stand It
TTITLE2=I Hope This Man Was Heaven Bound
TTITLE3=I Ain't Funny That Way
TTITLE4=You Live So Far Away
TTITLE5=Philly Angel
TTITLE6=Mainstreet Boogie
TTITLE7=Inside Job
TTITLE8=Young And Tender
TTITLE9=Grandma's Raisin' Chicken
TTITLE10=I'm Bound To Leave
TTITLE11=Doorbell, Doorbell
TTITLE12=Sleepy Water Blues
TTITLE13=Highway 61
TTITLE14=No, No Blues
TTITLE15=The Sinner In Me
TTITLE16=Pontchartrain Flood
EXTD=YEAR: 2005
EXTT0=
EXTT1=
EXTT2=
EXTT3=
EXTT4=
EXTT5=
EXTT6=
EXTT7=
EXTT8=
EXTT9=
EXTT10=
EXTT11=
EXTT12=
EXTT13=
EXTT14=
EXTT15=
EXTT16=
PLAYORDER=
